<?xml version="1.0" encoding="UTF-8"?>
<!DOCTYPE svg PUBLIC "-//W3C//DTD SVG 1.1//EN" "http://www.w3.org/Graphics/SVG/1.1/DTD/svg11.dtd">
<svg xmlns="http://www.w3.org/2000/svg" version="1.1" width="512px" height="512px" style="shape-rendering:geometricPrecision; text-rendering:geometricPrecision; image-rendering:optimizeQuality; fill-rule:evenodd; clip-rule:evenodd" xmlns:xlink="http://www.w3.org/1999/xlink">
<g><path style="opacity:0.994" fill="#fefefe" d="M 233.5,5.5 C 321.616,0.827679 394.116,31.8277 451,98.5C 504.512,169.076 518.845,247.076 494,332.5C 466.167,412.333 412.333,466.167 332.5,494C 233.518,521.547 147.352,499.714 74,428.5C 17.1613,365.622 -4.33866,292.122 9.5,208C 28.0566,124.5 75.7232,64.1663 152.5,27C 178.496,15.586 205.496,8.41929 233.5,5.5 Z"/></g>
<g><path style="opacity:1" fill="#c2a460" d="M 295.5,70.5 C 307.303,71.4672 318.97,73.3005 330.5,76C 340.5,86 350.5,96 360.5,106C 364.167,106.333 367.833,106.667 371.5,107C 385.667,121.167 399.833,135.333 414,149.5C 414.333,153.167 414.667,156.833 415,160.5C 425.667,171.167 436.333,181.833 447,192.5C 447.911,203.18 448.578,213.847 449,224.5C 427.167,246.333 405.333,268.167 383.5,290C 372.461,290.239 361.461,289.573 350.5,288C 335.167,272.667 319.833,257.333 304.5,242C 303.833,241.333 303.167,241.333 302.5,242C 240.5,304 178.5,366 116.5,428C 137.019,422.312 158.019,419.978 179.5,421C 195.225,428.63 196.558,438.297 183.5,450C 180.618,451.608 177.618,452.941 174.5,454C 152.421,454.202 131.088,450.202 110.5,442C 104.722,441.906 99.0555,441.239 93.5,440C 87.6433,436.813 85.4766,431.979 87,425.5C 88.5795,422.006 90.4128,418.673 92.5,415.5C 90.1833,412.683 87.6833,410.016 85,407.5C 84.3333,406.5 84.3333,405.5 85,404.5C 148.333,341.167 211.667,277.833 275,214.5C 275.667,213.833 275.667,213.167 275,212.5C 261.667,199.167 248.333,185.833 235,172.5C 232.125,161.752 229.625,150.919 227.5,140C 249.994,116.672 272.661,93.5057 295.5,70.5 Z"/></g>
<g><path style="opacity:1" fill="#fdfdfc" d="M 297.5,75.5 C 304.705,78.1005 311.705,81.2672 318.5,85C 294.167,109.333 269.833,133.667 245.5,158C 244.833,158.667 244.167,158.667 243.5,158C 240.792,153.416 237.958,148.916 235,144.5C 233.813,142.956 233.48,141.289 234,139.5C 255.368,118.299 276.535,96.9653 297.5,75.5 Z"/></g>
<g><path style="opacity:1" fill="#eee6d3" d="M 314.5,79.5 C 314.735,78.9033 315.235,78.5699 316,78.5C 318.226,78.9784 320.392,79.645 322.5,80.5C 322,80.8333 321.5,81.1667 321,81.5C 318.846,80.7259 316.679,80.0592 314.5,79.5 Z"/></g>
<g><path style="opacity:1" fill="#fefefd" d="M 325.5,81.5 C 326.552,81.3505 327.552,81.5172 328.5,82C 365.667,119.167 402.833,156.333 440,193.5C 440.167,196 439,197.167 436.5,197C 398.833,159.333 361.167,121.667 323.5,84C 324.381,83.2917 325.047,82.4584 325.5,81.5 Z"/></g>
<g><path style="opacity:1" fill="#fdfefe" d="M 320.5,90.5 C 358.43,126.762 395.763,163.762 432.5,201.5C 409.167,225.5 385.5,249.167 361.5,272.5C 324.167,235.833 287.167,198.833 250.5,161.5C 273.854,137.812 297.188,114.146 320.5,90.5 Z"/></g>
<g><path style="opacity:1" fill="#f7f3eb" d="M 366.5,113.5 C 367.251,112.427 368.251,112.26 369.5,113C 382.681,126.014 395.681,139.181 408.5,152.5C 407.998,153.521 407.332,153.688 406.5,153C 393.299,139.631 379.965,126.465 366.5,113.5 Z"/></g>
<g><path style="opacity:1" fill="#2fb6d5" d="M 350.5,136.5 C 351.5,136.5 352.5,136.5 353.5,136.5C 353.206,141.175 352.206,145.675 350.5,150C 353.916,148.719 357.416,147.219 361,145.5C 364.12,146.593 364.287,148.093 361.5,150C 357.255,152.039 353.088,154.206 349,156.5C 347.545,161.097 346.878,165.763 347,170.5C 349.143,173.325 351.81,175.325 355,176.5C 358.518,175.745 362.018,174.912 365.5,174C 368.629,170.248 371.129,166.081 373,161.5C 374.356,160.62 375.856,160.286 377.5,160.5C 376.268,164.134 374.601,167.634 372.5,171C 376.199,171.096 379.866,170.596 383.5,169.5C 387.449,170.813 387.449,172.313 383.5,174C 379.866,174.156 376.533,175.156 373.5,177C 376.167,178.667 378.833,180.333 381.5,182C 382.93,183.88 382.596,185.38 380.5,186.5C 376.073,183.29 371.406,180.624 366.5,178.5C 362.416,179.188 358.416,180.188 354.5,181.5C 353.346,184.452 352.346,187.452 351.5,190.5C 354.317,193.818 357.317,196.985 360.5,200C 366.094,200.147 371.594,200.313 377,200.5C 377.684,201.784 377.517,202.951 376.5,204C 372.833,204.333 369.167,204.667 365.5,205C 369.541,208.185 372.541,212.019 374.5,216.5C 370.318,214.509 366.484,211.842 363,208.5C 362.226,212.147 361.559,215.814 361,219.5C 360.282,220.451 359.449,220.617 358.5,220C 357.597,214.553 357.431,209.053 358,203.5C 355.167,200.667 352.333,197.833 349.5,195C 345.385,194.487 341.551,195.32 338,197.5C 337.062,200.812 336.229,204.145 335.5,207.5C 337.363,212.891 340.03,217.891 343.5,222.5C 342.537,224.49 341.204,224.823 339.5,223.5C 337.862,220.696 336.029,218.029 334,215.5C 331.908,219.197 330.741,223.197 330.5,227.5C 329.167,227.5 327.833,227.5 326.5,227.5C 327.263,222.745 328.096,218.078 329,213.5C 325.441,215.864 321.608,217.531 317.5,218.5C 317.238,217.022 317.571,215.689 318.5,214.5C 322.5,212.5 326.5,210.5 330.5,208.5C 331.914,204.34 333.247,200.173 334.5,196C 332.167,193.667 329.833,191.333 327.5,189C 323.446,189.009 319.446,189.676 315.5,191C 312.29,195.92 308.957,200.754 305.5,205.5C 304.28,205.113 303.613,204.28 303.5,203C 305.15,200.01 306.817,197.01 308.5,194C 304.35,193.869 300.35,194.702 296.5,196.5C 294.404,195.38 294.07,193.88 295.5,192C 299.5,191 303.5,190 307.5,189C 303.718,187.046 300.385,184.546 297.5,181.5C 298.348,179.717 299.681,179.217 301.5,180C 305.37,182.765 309.37,185.265 313.5,187.5C 317.5,186.333 321.5,185.167 325.5,184C 326.573,180.88 327.573,177.713 328.5,174.5C 325.952,171.241 323.286,168.074 320.5,165C 314.843,164.501 309.176,164.334 303.5,164.5C 303.5,163.167 303.5,161.833 303.5,160.5C 307.514,160.666 311.514,160.499 315.5,160C 312.145,156.779 309.145,153.279 306.5,149.5C 307.035,147.899 308.035,147.399 309.5,148C 312.333,150.833 315.167,153.667 318,156.5C 318.333,153.5 318.667,150.5 319,147.5C 321.012,143.426 322.512,143.593 323.5,148C 319.936,158.036 322.769,165.536 332,170.5C 335.145,169.589 338.312,168.755 341.5,168C 342.833,163.667 344.167,159.333 345.5,155C 342.827,150.65 340.16,146.317 337.5,142C 337.763,140.054 338.763,139.388 340.5,140C 342.543,143.253 344.71,146.42 347,149.5C 347.873,145.053 349.04,140.72 350.5,136.5 Z"/></g>
<g><path style="opacity:1" fill="#f6f2e9" d="M 235.5,151.5 C 237.835,154.531 239.835,157.865 241.5,161.5C 240.855,162.646 240.022,163.646 239,164.5C 237.673,160.191 236.506,155.858 235.5,151.5 Z"/></g>
<g><path style="opacity:1" fill="#fcfbf8" d="M 243.5,163.5 C 281.965,201.465 320.299,239.632 358.5,278C 356.309,279.919 353.976,281.253 351.5,282C 314.333,244.833 277.167,207.667 240,170.5C 240.798,168.139 241.965,165.806 243.5,163.5 Z"/></g>
<g><path style="opacity:1" fill="#fbfdfe" d="M 338.5,172.5 C 344.118,172.264 348.118,174.764 350.5,180C 349.589,183.145 348.755,186.312 348,189.5C 344.891,190.591 341.725,191.591 338.5,192.5C 330.315,189.128 328.315,183.462 332.5,175.5C 334.444,174.199 336.444,173.199 338.5,172.5 Z"/></g>
<g><path style="opacity:1" fill="#f0e8d7" d="M 440.5,199.5 C 441.725,200.152 442.392,201.319 442.5,203C 442.333,204.167 442.167,205.333 442,206.5C 441.023,204.26 440.523,201.927 440.5,199.5 Z"/></g>
<g><path style="opacity:1" fill="#fdfcfa" d="M 436.5,204.5 C 437.376,204.369 438.043,204.702 438.5,205.5C 441.545,210.888 443.378,216.555 444,222.5C 422.833,243.667 401.667,264.833 380.5,286C 375.523,284.017 370.523,281.684 365.5,279C 364.549,278.282 364.383,277.449 365,276.5C 389.035,252.632 412.868,228.632 436.5,204.5 Z"/></g>
<g><path style="opacity:1" fill="#fdfcfa" d="M 278.5,217.5 C 285.911,223.405 292.911,229.905 299.5,237C 298.4,238.023 297.067,238.523 295.5,238.5C 284.441,237.435 273.441,235.935 262.5,234C 268.036,228.631 273.37,223.131 278.5,217.5 Z"/></g>
<g><path style="opacity:1" fill="#fcfbf9" d="M 257.5,238.5 C 269.638,239.133 281.638,240.633 293.5,243C 290.5,246 287.5,249 284.5,252C 272.429,251.823 260.429,250.657 248.5,248.5C 251.522,245.147 254.522,241.813 257.5,238.5 Z"/></g>
<g><path style="opacity:1" fill="#fdfcfa" d="M 244.5,251.5 C 256.58,252.458 268.58,253.958 280.5,256C 277.167,259.333 273.833,262.667 270.5,266C 258.457,265.389 246.457,264.056 234.5,262C 238.037,258.631 241.371,255.131 244.5,251.5 Z"/></g>
<g><path style="opacity:1" fill="#fcfbf9" d="M 229.5,266.5 C 241.576,267.173 253.576,268.507 265.5,270.5C 262.683,273.818 259.683,276.985 256.5,280C 244.314,279.743 232.314,278.41 220.5,276C 223.704,272.964 226.704,269.797 229.5,266.5 Z"/></g>
<g><path style="opacity:1" fill="#fdfbf9" d="M 216.5,279.5 C 228.63,280.245 240.63,281.745 252.5,284C 248.829,288.523 244.496,292.023 239.5,294.5C 228.49,293.09 217.49,291.59 206.5,290C 210.037,286.631 213.371,283.131 216.5,279.5 Z"/></g>
<g><path style="opacity:1" fill="#f4eee1" d="M 360.5,279.5 C 372.162,284.627 371.162,285.794 357.5,283C 358.71,281.961 359.71,280.794 360.5,279.5 Z"/></g>
<g><path style="opacity:1" fill="#fcfbf9" d="M 202.5,293.5 C 214.575,294.343 226.575,295.843 238.5,298C 235.159,302.194 231.159,305.361 226.5,307.5C 215.49,306.09 204.49,304.59 193.5,303C 196.704,299.964 199.704,296.797 202.5,293.5 Z"/></g>
<g><path style="opacity:1" fill="#fdfcf9" d="M 189.5,306.5 C 201.58,307.458 213.58,308.958 225.5,311C 222.167,314.333 218.833,317.667 215.5,321C 203.455,320.389 191.455,319.056 179.5,317C 183.037,313.631 186.371,310.131 189.5,306.5 Z"/></g>
<g><path style="opacity:1" fill="#fcfbf9" d="M 174.5,321.5 C 186.576,322.173 198.576,323.507 210.5,325.5C 208.016,328.484 205.35,331.318 202.5,334C 190.414,333.947 178.414,332.78 166.5,330.5C 169.189,327.48 171.856,324.48 174.5,321.5 Z"/></g>
<g><path style="opacity:1" fill="#fdfcfa" d="M 161.5,334.5 C 173.581,335.174 185.581,336.507 197.5,338.5C 194.339,343.007 190.339,346.341 185.5,348.5C 174.452,347.329 163.452,345.829 152.5,344C 155.704,340.964 158.704,337.797 161.5,334.5 Z"/></g>
<g><path style="opacity:1" fill="#fdfcf9" d="M 148.5,347.5 C 160.532,348.673 172.532,350.173 184.5,352C 181.318,355.349 177.985,358.516 174.5,361.5C 163.128,360.049 151.795,358.382 140.5,356.5C 143.189,353.48 145.856,350.48 148.5,347.5 Z"/></g>
<g><path style="opacity:1" fill="#fdfcfa" d="M 135.5,360.5 C 147.537,361.67 159.537,363.17 171.5,365C 168.5,368 165.5,371 162.5,374C 150.4,374.067 138.4,372.9 126.5,370.5C 129.522,367.147 132.522,363.813 135.5,360.5 Z"/></g>
<g><path style="opacity:1" fill="#fcfbf9" d="M 121.5,374.5 C 133.638,375.133 145.638,376.633 157.5,379C 153.954,382.882 150.121,386.382 146,389.5C 134.826,387.803 123.66,386.136 112.5,384.5C 115.522,381.147 118.522,377.813 121.5,374.5 Z"/></g>
<g><path style="opacity:1" fill="#fdfdfc" d="M 107.5,388.5 C 119.602,389.251 131.602,390.751 143.5,393C 132.667,403.833 121.833,414.667 111,425.5C 104.319,418.986 97.8186,412.319 91.5,405.5C 96.855,399.813 102.188,394.146 107.5,388.5 Z"/></g>
<g><path style="opacity:1" fill="#f5efe5" d="M 101.5,425.5 C 107.704,428.109 107.704,429.776 101.5,430.5C 101.5,428.833 101.5,427.167 101.5,425.5 Z"/></g>
<g><path style="opacity:1" fill="#dfd0ae" d="M 157.5,426.5 C 158.919,425.549 160.585,425.216 162.5,425.5C 165.833,426.167 169.167,426.833 172.5,427.5C 168.5,427.5 164.5,427.5 160.5,427.5C 159.791,426.596 158.791,426.263 157.5,426.5 Z"/></g>
<g><path style="opacity:1" fill="#f6f1e8" d="M 157.5,426.5 C 158.791,426.263 159.791,426.596 160.5,427.5C 143.618,429.481 126.951,432.647 110.5,437C 104.606,438.037 98.9391,437.371 93.5,435C 91.7029,433.406 90.7029,431.406 90.5,429C 91.4126,425.008 93.2459,421.508 96,418.5C 96.8699,419.108 97.3699,419.941 97.5,421C 93.5395,432.377 97.5395,437.043 109.5,435C 125.235,430.633 141.235,427.8 157.5,426.5 Z"/></g>
<g><path style="opacity:1" fill="#fcfbf9" d="M 150.5,430.5 C 159.173,430.334 167.84,430.5 176.5,431C 181.15,433.592 181.483,436.592 177.5,440C 168.093,443.877 158.426,444.544 148.5,442C 141.191,440.876 134.191,438.876 127.5,436C 135.322,434.293 142.988,432.46 150.5,430.5 Z"/></g>
<g><path style="opacity:1" fill="#f7f3eb" d="M 162.5,425.5 C 169.391,424.901 176.058,425.735 182.5,428C 188.232,435.293 186.898,441.293 178.5,446C 167.968,448.992 157.301,449.326 146.5,447C 136.846,445.255 127.512,442.588 118.5,439C 120.833,438.333 123.167,438.333 125.5,439C 143.153,446.669 161.153,448.003 179.5,443C 185.853,434.195 183.52,429.029 172.5,427.5C 169.167,426.833 165.833,426.167 162.5,425.5 Z"/></g>
</svg>
